<svg xmlns="http://www.w3.org/2000/svg" viewBox="0 0 48 48" width="48" height="48">
  <!-- Official WhatsApp Icon -->
  <path fill="#25D366" d="M24 0C10.745 0 0 10.745 0 24c0 4.233 1.106 8.21 3.038 11.662L0.636 47.558a1 1 0 0 0 1.244 1.244l11.896-2.402C17.221 47.896 20.494 48 24 48c13.255 0 24-10.745 24-24S37.255 0 24 0z"/>
  <path fill="#FFFFFF" d="M35.176 12.832c-2.98-2.982-6.941-4.625-11.157-4.625-8.704 0-15.783 7.076-15.787 15.774-.001 2.981.835 5.887 2.413 8.396l-2.566 9.37 9.587-2.512c2.359 1.287 5.016 1.965 7.726 1.966h.007c8.7 0 15.775-7.077 15.778-15.776.002-4.213-1.633-8.176-4.612-11.155zm-11.157 24.27h-.006c-2.523 0-4.992-.678-7.137-1.962l-.512-.304-5.31 1.393 1.417-5.178-.334-.531c-1.414-2.245-2.162-4.84-2.161-7.513.003-7.784 6.338-14.116 14.129-14.116 3.774.002 7.32 1.472 9.988 4.142 2.668 2.67 4.136 6.218 4.134 9.991-.004 7.785-6.34 14.118-14.127 14.118zm7.746-10.577c-.424-.212-2.51-1.238-2.899-1.379-.389-.141-.672-.212-0.955.212-.283.425-1.097 1.38-1.344 1.663-.248.283-.495.318-.919.106-.425-.213-1.794-.661-3.417-2.108-1.263-1.126-2.117-2.518-2.364-2.942-.248-.425-.026-.654.186-.866.191-.19.424-.495.637-.743.212-.248.283-.424.424-.707.142-.283.071-.53-.035-.743-.106-.212-.955-2.298-1.309-3.146-.344-.826-.694-.714-.955-.727-.248-.012-.53-.015-.813-.015s-.743.106-1.132.53c-.389.426-1.485 1.451-1.485 3.537s1.52 4.104 1.732 4.387c.212.283 2.981 4.551 7.22 6.382 1.008.434 1.796.693 2.41.887.012.004 1.191.459 2.275.265.661-.118 2.51-.742 2.863-1.557.354-.815.354-1.514.248-1.663-.106-.141-.389-.248-.813-.46z"/>
</svg>
